<svg data-name="Layer 2" xmlns="http://www.w3.org/2000/svg"
  xmlns:xlink="http://www.w3.org/1999/xlink" viewBox="0 0 442.44 506.61">
  <defs>
    <linearGradient id="a" x1="79.47" y1="259.15" x2="169.48" y2="347.09"
      gradientUnits="userSpaceOnUse">
      <stop offset="0" stop-color="#f06" />
      <stop offset="1" stop-color="#2a0068" />
    </linearGradient>
    <linearGradient id="b" x1="276.1" y1="262.35" x2="359.47" y2="343.79" xlink:href="#a" />
    <linearGradient id="c" x1="192.29" y1="-18.6" x2="250.01" y2="37.79" xlink:href="#a" />
    <linearGradient id="d" x1="203.69" y1="-12.56" x2="238.75" y2="21.69" xlink:href="#a" />
    <linearGradient id="e" x1="112.08" y1="33.5" x2="147.38" y2="67.98" xlink:href="#a" />
    <linearGradient id="f" x1="152.09" y1="57.81" x2="192.73" y2="97.51" xlink:href="#a" />
    <linearGradient id="g" x1="158.57" y1="10.08" x2="177.66" y2="28.73" xlink:href="#a" />
    <linearGradient id="h" x1="177.12" y1="22.93" x2="195.58" y2="40.96" xlink:href="#a" />
    <linearGradient id="i" x1="200.51" y1="30.88" x2="216" y2="46.01" xlink:href="#a" />
    <linearGradient id="j" x1="133.03" y1="39.22" x2="140.24" y2="46.26" xlink:href="#a" />
    <linearGradient id="k" x1="168.19" y1="56.36" x2="183.52" y2="71.34" xlink:href="#a" />
    <linearGradient id="l" x1="275.09" y1="13.56" x2="350.56" y2="87.28" xlink:href="#a" />
    <linearGradient id="m" x1="235.02" y1="43.63" x2="304.49" y2="111.49" xlink:href="#a" />
    <linearGradient id="n" x1="192.44" y1="76.34" x2="249.62" y2="132.2" xlink:href="#a" />
    <linearGradient id="o" x1="268.73" y1="13.8" x2="279.91" y2="24.72" xlink:href="#a" />
    <linearGradient id="p" x1="249.47" y1="25.41" x2="262.65" y2="38.29" xlink:href="#a" />
    <linearGradient id="q" x1="227.02" y1="31.47" x2="241.28" y2="45.39" xlink:href="#a" />
    <linearGradient id="r" x1="281.23" y1="18.17" x2="330.9" y2="66.69" xlink:href="#a" />
    <linearGradient id="s" x1="247.85" y1="45.52" x2="285.38" y2="82.18" xlink:href="#a" />
    <linearGradient id="t" x1="91.22" y1="104.33" x2="118.76" y2="131.25" xlink:href="#a" />
    <linearGradient id="u" x1="369.23" y1="196.17" x2="432.88" y2="258.35" xlink:href="#a" />
    <linearGradient id="v" x1="8.82" y1="197.01" x2="70.72" y2="257.49" xlink:href="#a" />
    <linearGradient id="w" x1="82.48" y1="97.47" x2="102.91" y2="117.42" xlink:href="#a" />
    <linearGradient id="x" x1="123.63" y1="109.41" x2="142.09" y2="127.45" xlink:href="#a" />
    <linearGradient id="y" x1="295.24" y1="77.81" x2="378.41" y2="159.05" xlink:href="#a" />
    <linearGradient id="z" x1="337.32" y1="95.19" x2="362.21" y2="119.5" xlink:href="#a" />
    <linearGradient id="A" x1="302" y1="110.92" x2="317.23" y2="125.8" xlink:href="#a" />
    <linearGradient id="B" x1="42.28" y1="100.88" x2="53.37" y2="111.71" xlink:href="#a" />
    <linearGradient id="C" x1="29.66" y1="124.53" x2="37.89" y2="132.57" xlink:href="#a" />
    <linearGradient id="D" x1="22.58" y1="145.03" x2="28.9" y2="151.21" xlink:href="#a" />
    <linearGradient id="E" x1="58.73" y1="76.46" x2="71.99" y2="89.4" xlink:href="#a" />
    <linearGradient id="F" x1="85.73" y1="206.3" x2="121.74" y2="241.48" xlink:href="#a" />
    <linearGradient id="G" x1="96.15" y1="209.33" x2="125.31" y2="237.82" xlink:href="#a" />
    <linearGradient id="H" x1="118.08" y1="182.73" x2="171" y2="234.43" xlink:href="#a" />
    <linearGradient id="I" x1="125.17" y1="194.85" x2="168.41" y2="237.09" xlink:href="#a" />
    <linearGradient id="J" x1="166.68" y1="213.87" x2="188.37" y2="235.05" xlink:href="#a" />
    <linearGradient id="K" x1="170.07" y1="222.94" x2="184.2" y2="236.75" xlink:href="#a" />
    <linearGradient id="L" x1="97.65" y1="181.96" x2="109.13" y2="193.17" xlink:href="#a" />
    <linearGradient id="M" x1="69.44" y1="174" x2="84.35" y2="188.56" xlink:href="#a" />
    <linearGradient id="N" x1="55.69" y1="364.61" x2="66.58" y2="375.25" xlink:href="#a" />
    <linearGradient id="O" x1="132.83" y1="357.89" x2="166.56" y2="390.84" xlink:href="#a" />
    <linearGradient id="P" x1="81.2" y1="375.76" x2="92.1" y2="386.42" xlink:href="#a" />
    <linearGradient id="Q" x1="66.34" y1="370.15" x2="79.8" y2="383.3" xlink:href="#a" />
    <linearGradient id="R" x1="93.61" y1="378.49" x2="107.06" y2="391.64" xlink:href="#a" />
    <linearGradient id="S" x1="42.87" y1="355.92" x2="56.33" y2="369.07" xlink:href="#a" />
    <linearGradient id="T" x1="158.8" y1="147.62" x2="188.57" y2="176.71" xlink:href="#a" />
    <linearGradient id="U" x1="387.64" y1="100.88" x2="398.74" y2="111.71" xlink:href="#a" />
    <linearGradient id="V" x1="403.12" y1="124.53" x2="411.36" y2="132.57" xlink:href="#a" />
    <linearGradient id="W" x1="412.12" y1="145.03" x2="418.44" y2="151.21" xlink:href="#a" />
    <linearGradient id="X" x1="369.03" y1="76.46" x2="382.29" y2="89.4" xlink:href="#a" />
    <linearGradient id="Y" x1="319.05" y1="209.11" x2="349.11" y2="238.48" xlink:href="#a" />
    <linearGradient id="Z" x1="315.97" y1="212.77" x2="338.11" y2="234.39" xlink:href="#a" />
    <linearGradient id="aa" x1="283.53" y1="199.26" x2="303.34" y2="218.61" xlink:href="#a" />
    <linearGradient id="ab" x1="285.8" y1="210.93" x2="295.85" y2="220.75" xlink:href="#a" />
    <linearGradient id="ac" x1="243.86" y1="208.39" x2="276.61" y2="240.39" xlink:href="#a" />
    <linearGradient id="ad" x1="247.2" y1="216.72" x2="274.08" y2="242.97" xlink:href="#a" />
    <linearGradient id="ae" x1="328.65" y1="181.96" x2="340.12" y2="193.17" xlink:href="#a" />
    <linearGradient id="af" x1="353.43" y1="174" x2="368.33" y2="188.56" xlink:href="#a" />
    <linearGradient id="ag" x1="377.32" y1="367.58" x2="382.14" y2="372.29" xlink:href="#a" />
    <linearGradient id="ah" x1="263.87" y1="347.69" x2="319.5" y2="402.03" xlink:href="#a" />
    <linearGradient id="ai" x1="350.73" y1="377.68" x2="357.7" y2="384.49" xlink:href="#a" />
    <linearGradient id="aj" x1="361.07" y1="370.15" x2="374.52" y2="383.3" xlink:href="#a" />
    <linearGradient id="ak" x1="333.8" y1="378.49" x2="347.26" y2="391.64" xlink:href="#a" />
    <linearGradient id="al" x1="384.53" y1="355.92" x2="397.98" y2="369.06" xlink:href="#a" />
    <linearGradient id="am" x1="254.17" y1="144.46" x2="290.59" y2="180.04" xlink:href="#a" />
    <linearGradient id="an" x1="208.3" y1="286.94" x2="229.57" y2="307.72" xlink:href="#a" />
    <linearGradient id="ao" x1="210.26" y1="255.34" x2="227.61" y2="272.28" xlink:href="#a" />
    <linearGradient id="ap" x1="212.22" y1="228.18" x2="225.64" y2="241.28" xlink:href="#a" />
    <linearGradient id="aq" x1="214.19" y1="204.04" x2="223.68" y2="213.31" xlink:href="#a" />
    <linearGradient id="ar" x1="45.64" y1="81.07" x2="395.01" y2="422.36" xlink:href="#a" />
    <linearGradient id="as" x1="188.62" y1="390.33" x2="254.55" y2="454.73" xlink:href="#a" />
    <linearGradient id="at" x1="92.83" y1="415.87" x2="172.76" y2="493.96" xlink:href="#a" />
    <linearGradient id="au" x1="140.69" y1="420.98" x2="164.71" y2="444.44" xlink:href="#a" />
    <linearGradient id="av" x1="139.68" y1="396.27" x2="152.4" y2="408.7" xlink:href="#a" />
    <linearGradient id="aw" x1="287.22" y1="432.5" x2="332.57" y2="476.8" xlink:href="#a" />
    <linearGradient id="ax" x1="279.9" y1="423.13" x2="299.53" y2="442.3" xlink:href="#a" />
    <linearGradient id="ay" x1="290.12" y1="396.28" x2="302.83" y2="408.7" xlink:href="#a" />
    <linearGradient id="az" x1="200.69" y1="55.37" x2="241.78" y2="95.52" xlink:href="#a" />
    <linearGradient id="aA" x1="407.65" y1="234.92" x2="422.9" y2="249.82" xlink:href="#a" />
    <linearGradient id="aB" x1="18.12" y1="234.92" x2="33.37" y2="249.82" xlink:href="#a" />
  </defs>
  <g data-name="Layer 1">
    <path
      d="M176.71 273.63c-13.11-9.66-34.99-17.55-71.09-13.93-44.98 5.29-55.56 23.82-44.98 50.28 10.58 26.45 37.04 60.86 84.68 47.63 23.24-6.46 35.77-20.47 42.51-33.14 9.26-17.39 4.76-39.14-11.12-50.84Zm-62.18 29.1-15.93-7.29 14.26 11.22c-21.22 3.71-30.43-20.08-30.43-20.08s20.67-8.62 32.1 16.15Zm-34.1 25.07s6.15-21.53 32.64-15.03l-15.63 7.91 17.67-4.15c-10.34 18.9-34.68 11.27-34.68 11.27Zm30.98 27.26s-13-18.23 8.6-34.89l-3.56 17.16 7.77-16.41c8.33 19.87-12.81 34.14-12.81 34.14Zm11.88-57.45-4.23-17 .11 18.15c-16.12-14.28-3.27-36.32-3.27-36.32s19.63 10.78 7.39 35.17Zm32.36-24.05s3.8 22.07-22.9 27.7l10.66-13.9-14.12 11.4c1.11-21.51 26.36-25.2 26.36-25.2Zm-3.61 74.28s-22.36-1.2-21.91-28.48l11.19 13.48-7.98-16.3c20.72 5.87 18.7 31.3 18.7 31.3Zm-16.24-36.9 17.52-.34-17.72-3.92c17.51-12.55 36.13 4.89 36.13 4.89s-14.88 16.73-35.93-.63Z"
      style="fill:url(#a)" />
    <path
      d="M336.89 259.7c-36.1-3.62-57.98 4.27-71.09 13.93-15.88 11.7-20.38 33.45-11.12 50.84 6.74 12.67 19.27 26.68 42.51 33.14 47.64 13.23 74.1-21.18 84.68-47.63 10.58-26.46 0-44.99-44.98-50.28Zm-29.31 43.03-15.93-7.29 14.26 11.22c-21.21 3.71-30.43-20.08-30.43-20.08s20.67-8.62 32.1 16.15Zm-34.1 25.07s6.15-21.53 32.64-15.03l-15.63 7.91 17.67-4.15c-10.33 18.9-34.68 11.27-34.68 11.27Zm30.98 27.26s-13-18.23 8.61-34.89l-3.57 17.16 7.77-16.41c8.34 19.87-12.81 34.14-12.81 34.14Zm11.88-57.45-4.23-17 .12 18.15c-16.13-14.28-3.27-36.32-3.27-36.32s19.62 10.78 7.38 35.17Zm32.36-24.05s3.8 22.07-22.89 27.7l10.65-13.9-14.12 11.4c1.11-21.51 26.36-25.2 26.36-25.2Zm-3.61 74.28s-22.35-1.2-21.91-28.48l11.19 13.48-7.98-16.3c20.73 5.87 18.7 31.3 18.7 31.3Zm-16.24-36.9 17.52-.34-17.72-3.92c17.51-12.55 36.13 4.89 36.13 4.89s-14.88 16.73-35.93-.63Z"
      style="fill:url(#b)" />
    <path
      d="M221.23 37.91c-22.5 0-43.45-10.82-54.67-28.24-.52-.81-.29-1.88.52-2.4.8-.52 1.88-.29 2.4.52 10.59 16.43 30.41 26.64 51.74 26.64s41.17-10.21 51.76-26.64c.52-.81 1.6-1.04 2.4-.52.81.52 1.04 1.6.52 2.4-11.22 17.42-32.17 28.24-54.68 28.24Z"
      style="fill:url(#c)" />
    <path
      d="M221.23 19.8c-12.92 0-24.98-5.14-33.1-14.11a1.75 1.75 0 0 1 .12-2.46 1.75 1.75 0 0 1 2.46.12c7.46 8.24 18.58 12.96 30.52 12.96s23.07-4.72 30.53-12.96a1.74 1.74 0 0 1 2.46-.12c.71.64.77 1.74.12 2.46-8.12 8.97-20.18 14.11-33.11 14.11Z"
      style="fill:url(#d)" />
    <path
      d="M93.73 86.89c-1.02 0-1.59-.03-1.64-.04-.76-.05-1.4-.6-1.57-1.35-.17-.75.17-1.52.84-1.9.02-.01 6.2-4.21 13.21-28.33 3.95-13.58 10.82-23.98 15.88-30.32.6-.75 1.69-.87 2.44-.27s.87 1.69.27 2.44c-4.87 6.09-11.47 16.08-15.26 29.12-4.55 15.67-8.82 23.39-11.61 27.11 12.93-.61 54.47-6.73 78.96-58.39a1.743 1.743 0 0 1 3.15 1.49c-27.26 57.49-75.21 60.43-84.67 60.43Z"
      style="fill:url(#e)" />
    <path
      d="M155.75 128.93a1.745 1.745 0 0 1-1.69-1.32c-.47-1.91-11.38-47.06 4.8-76.64.46-.84 1.52-1.15 2.36-.69.84.46 1.15 1.52.69 2.36-13.55 24.78-6.95 62.41-4.97 71.9 43.39-24.77 48.08-78.67 48.13-79.22.07-.96.9-1.67 1.87-1.6.96.07 1.67.91 1.6 1.87-.04.58-5 57.99-51.97 83.13-.26.14-.54.21-.82.21Z"
      style="fill:url(#f)" />
    <path
      d="M172.08 28.41c-4.49 0-8.72-2.16-11.36-5.78-.05-.05-.09-.1-.13-.16a13.994 13.994 0 0 1-1.98-12.15 1.739 1.739 0 1 1 3.33 1.01c-.3.99-.45 2-.45 3.02 0 2.14.64 4.21 1.85 5.98.04.04.08.09.11.14 1.98 2.8 5.2 4.47 8.63 4.47 1.41 0 2.78-.28 4.08-.82 1.22-.51 2.3-1.21 3.2-2.09.69-.67 1.79-.65 2.46.03.67.69.65 1.79-.03 2.46-1.21 1.18-2.65 2.12-4.28 2.8-1.73.72-3.55 1.09-5.42 1.09Z"
      style="fill:url(#g)" />
    <path
      d="M189 41.64c-7.75 0-14.06-6.31-14.06-14.07 0-.72.05-1.43.16-2.12a1.74 1.74 0 1 1 3.44.54c-.08.52-.12 1.04-.12 1.59 0 5.84 4.75 10.59 10.58 10.59 2.58 0 5.06-.94 6.99-2.64.71-.63 1.34-1.34 1.86-2.14.53-.8 1.61-1.03 2.41-.5s1.03 1.61.5 2.41c-.69 1.06-1.52 2.01-2.47 2.84-2.55 2.26-5.85 3.5-9.29 3.5Z"
      style="fill:url(#h)" />
    <path
      d="M208.91 47.2c-6.18 0-11.58-3.96-13.43-9.85-.29-.92.22-1.89 1.14-2.18.91-.29 1.89.22 2.18 1.14 1.4 4.44 5.46 7.42 10.11 7.42 4.06 0 7.7-2.26 9.49-5.91.43-.86 1.47-1.22 2.33-.79.86.42 1.22 1.47.79 2.33-2.39 4.84-7.22 7.85-12.61 7.85Z"
      style="fill:url(#i)" />
    <path
      d="M114.39 68.83a1.732 1.732 0 0 1-1.68-2.16c.07-.3 16.35-33.38 48.65-46.81.89-.37 1.91.05 2.27.94.37.89-.05 1.9-.94 2.27-30.34 12.62-46.23 43.71-46.67 44.62-.25.69-.91 1.14-1.63 1.14Z"
      style="fill:url(#j)" />
    <path
      d="M165.01 89.54c-.1 0-.21 0-.31-.03a1.744 1.744 0 0 1-1.4-2.02c4.62-25.59 21.31-47.72 22.02-48.64.58-.76 1.67-.91 2.44-.33.76.58.91 1.67.33 2.44-.17.22-16.89 22.41-21.36 47.15-.15.84-.88 1.43-1.71 1.43Z"
      style="fill:url(#k)" />
    <path
      d="M348.74 86.89c-9.46 0-57.42-2.94-84.67-60.43-.41-.87-.04-1.9.83-2.32.87-.41 1.9-.04 2.32.83 24.52 51.74 66.05 57.8 78.96 58.39-2.79-3.72-7.06-11.44-11.61-27.12-3.79-13.01-10.37-23.01-15.22-29.1-.6-.75-.47-1.85.28-2.44.75-.6 1.85-.47 2.44.28 5.04 6.34 11.89 16.75 15.83 30.3 7.01 24.12 13.19 28.32 13.25 28.36.63.4.95 1.18.77 1.9-.19.73-.79 1.26-1.54 1.32-.05 0-.63.04-1.64.04Z"
      style="fill:url(#l)" />
    <path
      d="M286.72 128.93c-.28 0-.57-.07-.82-.21-46.97-25.14-51.92-82.55-51.97-83.13-.07-.96.64-1.79 1.6-1.87.97-.07 1.79.64 1.87 1.6.04.55 4.74 54.45 48.12 79.22 1.98-9.49 8.58-47.14-4.96-71.9-.46-.84-.15-1.9.69-2.36.84-.46 1.9-.15 2.36.69 16.18 29.58 5.27 74.73 4.79 76.64a1.745 1.745 0 0 1-1.69 1.32Z"
      style="fill:url(#m)" />
    <path
      d="M221.24 160.26c-.37 0-.75-.12-1.07-.36-1.26-.98-30.86-24.75-20.43-90.56.15-.95 1.04-1.6 1.99-1.44.95.15 1.6 1.04 1.45 1.99-8.96 56.54 12.88 81.33 18.06 86.31 5.17-4.97 27.02-29.76 18.06-86.31a1.74 1.74 0 0 1 3.44-.55c10.43 65.82-19.17 89.59-20.43 90.56-.31.24-.69.36-1.07.36Z"
      style="fill:url(#n)" />
    <path
      d="M284.4 13.14c-.08-.96-.26-1.91-.54-2.83a1.739 1.739 0 1 0-3.33 1.01c.07.24.14.49.2.74.17.75.25 1.52.25 2.28 0 2.13-.62 4.19-1.82 5.95l-.02.03c-.04.04-.08.09-.11.14-.04.03-.06.07-.09.11a10.583 10.583 0 0 1-8.55 4.36c-1.38 0-2.71-.26-3.99-.79-.01 0-.03 0-.04-.01-.01-.01-.03-.01-.04-.02-.8-.33-1.53-.74-2.19-1.25a7.26 7.26 0 0 1-1.01-.84c-.69-.67-1.79-.65-2.46.04s-.65 1.79.03 2.46c.19.19.39.37.6.55a13.486 13.486 0 0 0 3.06 1.97 14.253 14.253 0 0 0 3.16 1.07c.45.09.9.17 1.36.21.5.06 1.01.09 1.52.09 4.08 0 7.95-1.78 10.59-4.82.27-.3.53-.63.77-.96.05-.05.09-.11.13-.16.41-.58.77-1.19 1.08-1.81.99-1.96 1.5-4.11 1.5-6.32 0-.4-.02-.8-.06-1.2Z"
      style="fill:url(#o)" />
    <path
      d="M253.47 41.64c-3.43 0-6.73-1.25-9.29-3.51-.94-.82-1.77-1.78-2.46-2.84-.53-.8-.3-1.88.5-2.41.8-.53 1.88-.3 2.41.5.52.79 1.14 1.51 1.85 2.13 1.93 1.71 4.41 2.64 6.99 2.64 5.83 0 10.58-4.75 10.58-10.59 0-.55-.04-1.07-.12-1.59-.15-.95.5-1.84 1.45-1.99.93-.15 1.84.5 1.99 1.45.11.69.16 1.4.16 2.12 0 7.76-6.31 14.07-14.06 14.07Z"
      style="fill:url(#p)" />
    <path
      d="M233.56 47.2c-5.39 0-10.23-3.01-12.61-7.85-.43-.86-.07-1.9.79-2.33.86-.43 1.9-.07 2.33.79 1.8 3.65 5.44 5.91 9.49 5.91 4.65 0 8.72-2.98 10.11-7.41.29-.92 1.26-1.43 2.18-1.14.92.29 1.43 1.26 1.14 2.18a14.019 14.019 0 0 1-13.43 9.85Z"
      style="fill:url(#q)" />
    <path
      d="M328.07 68.83c-.72 0-1.38-.45-1.63-1.14-.44-.92-16.32-32-46.67-44.62a1.735 1.735 0 0 1-.94-2.27c.37-.89 1.38-1.31 2.27-.94 32.36 13.46 48.58 46.52 48.65 46.82.23.93-.34 1.88-1.27 2.11-.14.03-.28.05-.42.05Z"
      style="fill:url(#r)" />
    <path
      d="M277.46 89.54c-.83 0-1.56-.59-1.71-1.43-4.47-24.75-21.2-46.93-21.36-47.15-.58-.76-.43-1.86.33-2.44.77-.58 1.86-.43 2.44.33.71.93 17.4 23.06 22.02 48.64a1.744 1.744 0 0 1-1.71 2.05Z"
      style="fill:url(#s)" />
    <path
      d="M78.22 165.71c-1.29 0-2.59-.15-3.89-.47a19.877 19.877 0 0 1-12.35-9.06c-2.77-4.57-3.6-9.95-2.33-15.14 1.48-6.04 5.6-11.33 11.3-14.51 5.29-2.95 11.23-3.09 16.96-3.22h.47c4.87-.12 9.53-.78 13.84-1.97 18.79-5.17 34.42-22.08 40.77-44.14a1.739 1.739 0 0 1 3.34.96c-6.68 23.21-23.23 41.04-43.19 46.53-4.59 1.26-9.53 1.96-14.68 2.08h-.48c-5.31.13-10.81.26-15.35 2.79-4.86 2.71-8.37 7.19-9.62 12.3-1.05 4.29-.37 8.73 1.92 12.51 2.29 3.78 5.92 6.44 10.21 7.49 6.91 1.69 13.89-2.55 15.58-9.45 1.31-5.33-1.97-10.74-7.31-12.04-4.07-1-8.21 1.51-9.21 5.59-.75 3.08 1.14 6.2 4.22 6.95.93.23 1.5 1.17 1.27 2.1-.23.93-1.18 1.5-2.1 1.28-4.94-1.21-7.98-6.22-6.77-11.16 1.46-5.94 7.47-9.59 13.42-8.14 7.2 1.76 11.62 9.05 9.86 16.25-1.83 7.46-8.53 12.47-15.89 12.47Z"
      style="fill:url(#t)" />
    <path
      d="M402.06 289.15c-.61 0-1.21-.32-1.52-.9-11.69-21.14-12.59-45.45-2.36-63.44 2.35-4.13 5.35-8.12 8.91-11.86l.32-.34c3.67-3.84 7.47-7.82 8.89-12.82 1.52-5.36.83-11.01-1.89-15.5-4.73-7.8-14.92-10.29-22.72-5.56a12.802 12.802 0 0 0-5.83 7.95c-.82 3.34-.29 6.8 1.5 9.75a9.859 9.859 0 0 0 6.15 4.51c2.59.63 5.26.22 7.54-1.16a7.555 7.555 0 0 0 3.45-4.7c.48-1.98.17-4.02-.89-5.76a5.717 5.717 0 0 0-3.55-2.6 5.677 5.677 0 0 0-4.35.67c-.82.5-1.89.24-2.39-.59-.5-.82-.24-1.89.58-2.39a9.145 9.145 0 0 1 6.98-1.07c2.39.59 4.42 2.07 5.69 4.18a11 11 0 0 1 1.29 8.4c-.71 2.88-2.49 5.31-5.02 6.85a13.337 13.337 0 0 1-10.17 1.56c-3.49-.85-6.43-3.01-8.29-6.08a16.242 16.242 0 0 1-1.9-12.38 16.25 16.25 0 0 1 7.41-10.1c9.44-5.72 21.77-2.7 27.5 6.73 3.23 5.32 4.05 11.97 2.26 18.25-1.66 5.83-5.76 10.12-9.72 14.27l-.32.34c-3.37 3.53-6.2 7.29-8.4 11.18-9.64 16.94-8.72 39.95 2.38 60.04.46.84.16 1.9-.68 2.36-.27.15-.55.22-.84.22Z"
      style="fill:url(#u)" />
    <path
      d="M39.06 289.15c-.29 0-.57-.07-.84-.22a1.73 1.73 0 0 1-.68-2.36c11.1-20.09 12.02-43.09 2.38-60.03-2.21-3.89-5.04-7.65-8.4-11.18l-.32-.34c-3.96-4.15-8.06-8.44-9.72-14.27-1.79-6.28-.96-12.94 2.26-18.25 2.77-4.57 7.16-7.79 12.35-9.06 5.2-1.27 10.57-.44 15.14 2.33 7.71 4.68 10.18 14.76 5.5 22.48a13.335 13.335 0 0 1-8.29 6.08c-3.49.86-7.1.3-10.17-1.56a11.025 11.025 0 0 1-5.02-6.85c-.7-2.88-.25-5.86 1.29-8.4a9.181 9.181 0 0 1 5.69-4.18c2.4-.59 4.87-.21 6.98 1.07.82.5 1.08 1.57.58 2.39a1.75 1.75 0 0 1-2.39.59 5.714 5.714 0 0 0-4.35-.67 5.754 5.754 0 0 0-3.55 2.6 7.582 7.582 0 0 0-.89 5.77 7.529 7.529 0 0 0 3.45 4.7 9.92 9.92 0 0 0 7.54 1.16 9.885 9.885 0 0 0 6.15-4.51c3.68-6.07 1.74-14.01-4.34-17.7a16.437 16.437 0 0 0-12.51-1.92 16.428 16.428 0 0 0-10.21 7.49c-2.72 4.49-3.41 10.14-1.89 15.5 1.42 5 5.22 8.98 8.89 12.82l.32.34c3.56 3.73 6.56 7.72 8.91 11.86 10.23 17.99 9.33 42.3-2.36 63.44-.32.57-.91.9-1.52.9Z"
      style="fill:url(#v)" />
    <path
      d="M88.76 126.76c-.33 0-.66-.09-.96-.29-2.85-1.88-5.2-4.32-6.99-7.24a18.481 18.481 0 0 1-2.17-14.11c1.18-4.84 4.18-8.92 8.44-11.51a15.275 15.275 0 0 1 18.61 2.14c4.48 4.41 5.18 11.68 1.61 16.9-2.1 3.08-5.32 4.84-8.84 4.85h-.02c-3.43 0-6.63-1.68-8.57-4.51-1.51-2.21-1.88-5.09-1-7.71 1.12-3.25 3.58-5.38 6.59-5.7 2.78-.3 5.55 1.06 7 3.46a1.74 1.74 0 0 1-2.97 1.81 3.807 3.807 0 0 0-3.66-1.81c-1.66.18-2.99 1.4-3.67 3.36-.53 1.58-.32 3.32.58 4.63 1.29 1.88 3.42 3 5.71 3h.01c2.39 0 4.51-1.19 5.97-3.33 2.63-3.85 2.12-9.21-1.18-12.46a11.769 11.769 0 0 0-14.36-1.65c-3.47 2.1-5.9 5.43-6.87 9.36a15.08 15.08 0 0 0 1.76 11.47c1.52 2.48 3.52 4.55 5.94 6.15.8.53 1.02 1.61.5 2.41-.33.51-.89.78-1.45.78Z"
      style="fill:url(#w)" />
    <path
      d="M134.66 130.29c-1.16 0-2.33-.18-3.48-.56-7.02-2.32-10.85-9.92-8.53-16.94.78-2.33 2.02-4.4 3.71-6.16.66-.7 1.76-.72 2.46-.06.69.66.72 1.76.06 2.46a12.908 12.908 0 0 0-2.92 4.86c-1.71 5.19 1.12 10.82 6.32 12.54 3.3 1.09 6.92-.19 8.79-3.12 1.58-2.48 1.13-5.87-1.05-7.88-1.18-1.09-2.61-1.51-4.05-1.19a4.226 4.226 0 0 0-3 2.58c-.34.86-.23 1.88.29 2.73.64 1.03 1.52 1.54 2.46 1.43.8-.1 1.48-.65 1.73-1.42.3-.91 1.29-1.41 2.2-1.11.91.3 1.41 1.28 1.11 2.2a5.591 5.591 0 0 1-4.62 3.78c-2.29.27-4.47-.87-5.83-3.06-1.1-1.78-1.31-3.96-.57-5.83a7.712 7.712 0 0 1 5.46-4.69c2.55-.58 5.16.16 7.18 2.02 3.4 3.14 4.09 8.43 1.62 12.3a11.075 11.075 0 0 1-9.33 5.11Z"
      style="fill:url(#x)" />
    <path
      d="M364.26 165.71c-7.36 0-14.07-5.01-15.9-12.47-1.76-7.2 2.66-14.49 9.86-16.25 5.95-1.46 11.96 2.2 13.42 8.14 1.21 4.94-1.82 9.95-6.77 11.16-.94.22-1.87-.34-2.1-1.28-.23-.93.34-1.87 1.27-2.1 3.08-.75 4.97-3.87 4.22-6.95-1-4.08-5.12-6.59-9.21-5.59-5.33 1.31-8.61 6.71-7.31 12.04 1.69 6.9 8.68 11.14 15.58 9.45 8.86-2.17 14.3-11.14 12.13-20-1.25-5.1-4.76-9.59-9.62-12.3-4.54-2.53-10.04-2.66-15.35-2.78H354c-5.16-.13-10.1-.83-14.69-2.09-19.95-5.49-36.5-23.31-43.19-46.53-.27-.92.27-1.89 1.19-2.15.91-.26 1.88.27 2.15 1.19 6.35 22.06 21.97 38.97 40.77 44.14 4.31 1.19 8.97 1.84 13.85 1.96h.47c5.73.14 11.67.28 16.96 3.23 5.71 3.18 9.83 8.47 11.31 14.51 2.62 10.72-3.96 21.58-14.68 24.21-1.3.32-2.61.47-3.89.47Z"
      style="fill:url(#y)" />
    <path
      d="M353.71 126.76a1.735 1.735 0 0 1-.95-3.19c2.42-1.59 4.42-3.66 5.94-6.15 4.33-7.15 2.04-16.49-5.11-20.83a11.785 11.785 0 0 0-14.37 1.65c-3.3 3.25-3.81 8.6-1.18 12.46 1.46 2.14 3.58 3.33 5.97 3.33h.01c2.28 0 4.42-1.12 5.71-3 .89-1.3 1.11-3.04.57-4.63-.67-1.95-2.01-3.17-3.66-3.35a3.78 3.78 0 0 0-3.66 1.81 1.74 1.74 0 0 1-2.97-1.81c1.46-2.4 4.2-3.76 7-3.46 3.01.32 5.47 2.45 6.58 5.69.89 2.63.51 5.52-.99 7.72a10.405 10.405 0 0 1-8.58 4.51H344c-3.52 0-6.74-1.77-8.84-4.85-3.57-5.22-2.87-12.49 1.61-16.9a15.244 15.244 0 0 1 18.61-2.14c8.79 5.33 11.6 16.82 6.27 25.61a22.972 22.972 0 0 1-7 7.25c-.29.19-.63.29-.96.29Z"
      style="fill:url(#z)" />
    <path
      d="M307.81 130.29c-3.7 0-7.25-1.86-9.33-5.11-2.47-3.88-1.77-9.17 1.62-12.31 2.02-1.87 4.64-2.6 7.18-2.02a7.73 7.73 0 0 1 5.47 4.69c.74 1.88.52 4.05-.56 5.82-1.37 2.2-3.55 3.34-5.84 3.07a5.578 5.578 0 0 1-4.62-3.78c-.3-.91.2-1.9 1.11-2.2.91-.3 1.9.19 2.2 1.11.25.76.93 1.32 1.73 1.42.92.11 1.82-.4 2.47-1.44.51-.84.62-1.86.28-2.72a4.231 4.231 0 0 0-3-2.57c-1.43-.33-2.87.1-4.05 1.19-2.18 2.01-2.63 5.4-1.05 7.88a7.605 7.605 0 0 0 8.79 3.11c5.2-1.72 8.03-7.35 6.32-12.55-.61-1.83-1.59-3.46-2.92-4.85-.66-.69-.64-1.8.06-2.46s1.8-.64 2.46.06c1.68 1.76 2.93 3.83 3.7 6.16 2.32 7.03-1.51 14.63-8.53 16.94-1.15.38-2.32.56-3.48.56Z"
      style="fill:url(#A)" />
    <path
      d="M47.82 98.54c-4.27 0-7.75 3.48-7.75 7.76s3.48 7.75 7.75 7.75 7.76-3.48 7.76-7.75-3.48-7.76-7.76-7.76Zm0 12.04c-2.36 0-4.28-1.92-4.28-4.28s1.92-4.28 4.28-4.28 4.28 1.92 4.28 4.28-1.92 4.28-4.28 4.28Z"
      style="fill:url(#B)" />
    <path
      d="M33.77 122.79c-3.17 0-5.75 2.58-5.75 5.76s2.58 5.76 5.75 5.76 5.76-2.59 5.76-5.76-2.58-5.76-5.76-5.76Zm0 8.04c-1.25 0-2.28-1.03-2.28-2.28s1.03-2.28 2.28-2.28 2.28 1.02 2.28 2.28-1.02 2.28-2.28 2.28Z"
      style="fill:url(#C)" />
    <path
      d="M25.74 143.7c-2.44 0-4.42 1.98-4.42 4.42s1.98 4.42 4.42 4.42 4.42-1.98 4.42-4.42-1.99-4.42-4.42-4.42Zm0 5.36a.939.939 0 1 1 0-1.88.939.939 0 1 1 0 1.88Z"
      style="fill:url(#D)" />
    <path
      d="M65.36 73.66c-5.11 0-9.27 4.16-9.27 9.27s4.16 9.27 9.27 9.27 9.27-4.16 9.27-9.27-4.16-9.27-9.27-9.27Zm0 15.06c-3.19 0-5.79-2.6-5.79-5.79s2.6-5.79 5.79-5.79 5.79 2.6 5.79 5.79-2.6 5.79-5.79 5.79Z"
      style="fill:url(#E)" />
    <path
      d="M135.08 226.84c0-.12-.04-.24-.09-.35-.02-.07-.05-.13-.08-.19-.06-.13-.14-.24-.23-.35-1.64-2.35-17.59-23.57-51.11-15.2-3.28.82-5.9 3.1-7.17 6.24-1.26 3.13-.96 6.56.82 9.42 1.97 3.15 5.33 4.93 8.83 4.93 1.31 0 2.65-.25 3.94-.78 7.7-3.18 21.42-6.06 43.03-1.76.02 0 .05.01.07.01a1.628 1.628 0 0 0 .58-.01c.12-.02.24-.05.36-.11.05-.02.1-.04.15-.07.05-.02.11-.05.16-.09.11-.07.21-.16.31-.27.05-.05.1-.11.14-.18.21-.3.31-.65.31-.99 0-.08 0-.16-.02-.25Zm-46.42.5c-3.12 1.29-6.69.12-8.49-2.77-1.19-1.9-1.38-4.19-.54-6.28.85-2.1 2.59-3.61 4.79-4.16 5.29-1.32 10.09-1.88 14.43-1.88 12.38 0 20.98 4.53 26.3 8.73h.02c1.59 1.27 2.87 2.49 3.89 3.56-2.39-.38-4.67-.68-6.86-.9-16.02-1.61-26.88.95-33.54 3.69Z"
      style="fill:url(#F)" />
    <path
      d="M133.36 228.83c-.34 0-.69-.1-.99-.31-.19-.13-18.92-12.8-43.86-6.77a1.75 1.75 0 0 1-2.1-1.28c-.23-.93.35-1.87 1.28-2.1 26.51-6.41 45.85 6.73 46.67 7.29.79.55.98 1.63.44 2.42-.34.49-.88.75-1.43.75Z"
      style="fill:url(#G)" />
    <path
      d="M133.09 181.41c-3.54-2.13-7.75-2.42-11.54-.81-3.78 1.61-6.49 4.82-7.41 8.82-1.41 6.06 1.71 12.18 7.42 14.56 9.75 4.06 24.62 13.75 40.09 36.89 0 .03.03.05.05.08.04.06.08.11.13.16.13.15.28.28.45.38.17.1.36.17.56.2a1.628 1.628 0 0 0 .62 0c.09-.02.18-.04.26-.07.08-.03.16-.06.23-.1.06-.03.12-.06.17-.1.31-.2.54-.5.66-.84.03-.08.05-.15.07-.23 0-.01 0-.02.01-.05.31-1.6 6.55-35.89-31.77-58.89Zm28.89 53.8c-1.3-1.83-2.6-3.58-3.89-5.24-13.62-17.52-26.39-25.54-35.2-29.2-4.13-1.72-6.38-6.16-5.36-10.56.67-2.91 2.63-5.24 5.38-6.41a9.28 9.28 0 0 1 3.63-.74c1.65 0 3.28.44 4.76 1.33 24.93 14.97 30.06 34.36 30.68 45.75.11 1.94.08 3.65 0 5.07Z"
      style="fill:url(#H)" />
    <path
      d="M163.15 241.72c-.82 0-1.56-.59-1.71-1.43-.05-.28-5.48-28.48-33.29-45.45a1.74 1.74 0 0 1 1.81-2.97c29.19 17.82 34.68 46.59 34.9 47.8a1.744 1.744 0 0 1-1.71 2.05Z"
      style="fill:url(#I)" />
    <path
      d="M191.94 209.47c-.19-2.9-1.71-5.46-4.18-7.02-2.45-1.55-5.41-1.82-8.11-.75-4.08 1.63-6.38 5.91-5.45 10.18 1.45 6.75 1.78 18.34-4.9 35.33-.12.28-.15.58-.11.88 0 .06.01.11.03.17.03.17.1.33.2.48.02.05.05.09.08.14.05.08.11.15.18.22.34.34.78.51 1.23.51.22 0 .44-.05.65-.13.01 0 .02-.01.03-.01.86-.37 22.34-10.03 20.35-40Zm-13.5 30.92c-1.5 1.52-2.98 2.7-4.25 3.59.85-2.48 1.55-4.85 2.13-7.1v-.02c2.97-11.68 2.47-20.19 1.27-25.71-.56-2.61.85-5.22 3.35-6.21.67-.27 1.36-.4 2.04-.4 1.02 0 2.03.29 2.93.85 1.51.96 2.45 2.53 2.56 4.31 1.05 15.81-4.71 25.35-10.03 30.69Z"
      style="fill:url(#J)" />
    <path
      d="M170.91 249.61a1.738 1.738 0 0 1-1.23-2.97c.13-.13 13.19-13.53 11.95-34.71-.06-.96.68-1.78 1.63-1.84.96-.05 1.78.68 1.84 1.63 1.34 22.8-12.37 36.79-12.96 37.38-.34.34-.78.51-1.23.51Z"
      style="fill:url(#K)" />
    <path
      d="M103.39 179.54c-4.42 0-8.03 3.6-8.03 8.03s3.61 8.02 8.03 8.02 8.03-3.6 8.03-8.02-3.6-8.03-8.03-8.03Zm0 12.57c-2.51 0-4.55-2.04-4.55-4.54s2.04-4.55 4.55-4.55 4.55 2.04 4.55 4.55-2.04 4.54-4.55 4.54Z"
      style="fill:url(#L)" />
    <path
      d="M76.89 170.86c-5.74 0-10.42 4.67-10.42 10.42s4.68 10.42 10.42 10.42 10.43-4.67 10.43-10.42-4.68-10.42-10.43-10.42Zm0 17.36c-3.83 0-6.94-3.11-6.94-6.94s3.11-6.94 6.94-6.94 6.95 3.11 6.95 6.94-3.12 6.94-6.95 6.94Z"
      style="fill:url(#M)" />
    <path
      d="M66.38 374.71c-.27 0-.54-.06-.79-.19-3.66-1.88-7.25-3.95-10.65-6.16-.81-.52-1.03-1.6-.51-2.41s1.6-1.04 2.4-.51c3.3 2.15 6.78 4.16 10.34 5.98.85.44 1.19 1.49.75 2.34-.31.6-.92.95-1.55.95Z"
      style="fill:url(#N)" />
    <path
      d="M121.2 388.35c-4.46 0-8.94-.26-13.44-.8-.95-.11-1.64-.98-1.52-1.93.11-.95.99-1.63 1.93-1.52 28.37 3.35 55.99-4.22 82.09-22.5a1.76 1.76 0 0 1 2.49.15c.62.72.56 1.79-.15 2.43l-.02.02s-.04.04-.07.05c-.05.05-.11.1-.17.14-22.72 15.93-46.59 23.96-71.14 23.96Z"
      style="fill:url(#O)" />
    <path
      d="M92.96 384.8c-.14 0-.29-.02-.43-.06-4.24-1.09-8.54-2.43-12.78-3.99-.9-.33-1.36-1.33-1.03-2.23a1.73 1.73 0 0 1 2.23-1.03c4.13 1.52 8.31 2.82 12.44 3.88.93.24 1.49 1.19 1.25 2.12-.2.79-.91 1.31-1.68 1.31Z"
      style="fill:url(#P)" />
    <path
      d="M80.2 370.59a9.335 9.335 0 0 0-6.42-3.25c-2.5-.19-4.94.61-6.84 2.25-.4.35-.77.72-1.1 1.12-.76.9-1.33 1.93-1.7 3.04-.24.72-.39 1.48-.45 2.26-.19 2.51.6 4.94 2.24 6.84a9.338 9.338 0 0 0 6.43 3.25 9.33 9.33 0 0 0 6.84-2.24c.85-.74 1.56-1.6 2.09-2.56.56-1.01.94-2.12 1.1-3.29.03-.19.05-.38.06-.57.19-2.51-.61-4.94-2.25-6.85Zm-3.27 10.63a5.88 5.88 0 0 1-4.31 1.42 5.894 5.894 0 0 1-4.05-2.05 5.9 5.9 0 0 1-1.41-4.31c.12-1.58.84-3.02 2.04-4.05a5.867 5.867 0 0 1 4.32-1.42c1.58.12 3.01.85 4.05 2.05a5.864 5.864 0 0 1 1.41 4.31c-.03.45-.12.9-.26 1.32 0 .04 0 .07-.03.11s0 .04 0 .05 0 .03-.02.04c-.34.97-.92 1.84-1.73 2.53Z"
      style="fill:url(#Q)" />
    <path
      d="M109.7 384.27a9.18 9.18 0 0 0-2.23-5.33 9.347 9.347 0 0 0-6.42-3.26c-2.51-.18-4.94.61-6.84 2.25-1 .86-1.79 1.89-2.34 3.04a8.937 8.937 0 0 0-.92 3.36v.02c-.19 2.51.61 4.94 2.25 6.84a9.347 9.347 0 0 0 6.42 3.26c.25.01.49.02.73.02 2.24 0 4.39-.79 6.11-2.27 1.4-1.2 2.39-2.74 2.89-4.46.19-.63.31-1.29.36-1.96.04-.51.04-1.01-.01-1.51Zm-9.81 6.71a5.894 5.894 0 0 1-4.05-2.05 5.852 5.852 0 0 1-1.42-4.31c.02-.32.07-.63.15-.93v-.02c.03-.11.06-.23.1-.34v-.05c.33-1.05.94-1.98 1.79-2.71a5.91 5.91 0 0 1 3.86-1.43c.15 0 .3 0 .45.01 1.58.12 3.02.85 4.05 2.05a5.9 5.9 0 0 1 1.44 3.86c0 .15 0 .3-.02.45 0 .04-.01.08-.01.12a5.901 5.901 0 0 1-2.04 3.93 5.88 5.88 0 0 1-4.31 1.42Z"
      style="fill:url(#R)" />
    <path
      d="M50.31 353.11c-2.51-.19-4.93.61-6.84 2.25a9.376 9.376 0 0 0-3.25 6.42c-.39 5.17 3.5 9.7 8.67 10.1.24.01.48.02.73.02 2.24 0 4.39-.79 6.11-2.27.17-.15.34-.3.5-.46.72-.72 1.32-1.54 1.77-2.43.07-.14.14-.28.21-.43.42-.97.68-2.01.77-3.1.39-5.18-3.5-9.7-8.67-10.1Zm-1.16 15.3c-3.26-.25-5.71-3.1-5.46-6.36.12-1.58.85-3.02 2.05-4.05a5.883 5.883 0 0 1 3.85-1.43c.15 0 .31 0 .46.01 3.26.25 5.71 3.1 5.46 6.36a5.883 5.883 0 0 1-2.04 4.05 5.932 5.932 0 0 1-4.32 1.42Z"
      style="fill:url(#S)" />
    <path
      d="M172.21 192.69c-.21 0-.43-.04-.64-.12-7.34-2.91-13.11-8.5-16.24-15.74-3.13-7.25-3.26-15.28-.35-22.62 2.36-5.96 6.9-10.64 12.78-13.18 5.88-2.54 12.4-2.64 18.36-.29 10.02 3.97 14.94 15.35 10.97 25.36-3.24 8.19-12.54 12.22-20.74 8.97-6.73-2.67-10.04-10.31-7.37-17.05 2.2-5.56 8.53-8.29 14.09-6.09 2.24.89 4.01 2.6 4.96 4.81s1 4.67.11 6.91c-.35.89-1.36 1.33-2.26.98a1.745 1.745 0 0 1-.98-2.26c.55-1.38.52-2.89-.07-4.25a5.534 5.534 0 0 0-3.05-2.96c-3.78-1.5-8.07.36-9.57 4.14-1.96 4.95.47 10.57 5.42 12.53 6.41 2.54 13.69-.61 16.23-7.02 3.26-8.23-.78-17.59-9.02-20.85-5.1-2.02-10.67-1.93-15.7.24-5.03 2.18-8.91 6.18-10.93 11.27-2.57 6.48-2.46 13.56.31 19.95 2.76 6.39 7.85 11.33 14.33 13.89.89.35 1.33 1.36.98 2.26-.27.68-.93 1.1-1.62 1.1Z"
      style="fill:url(#T)" />
    <path
      d="M393.19 98.54c-4.28 0-7.76 3.48-7.76 7.76s3.48 7.75 7.76 7.75 7.76-3.48 7.76-7.75-3.48-7.76-7.76-7.76Zm0 12.04c-2.36 0-4.28-1.92-4.28-4.28s1.92-4.28 4.28-4.28 4.28 1.92 4.28 4.28-1.92 4.28-4.28 4.28Z"
      style="fill:url(#U)" />
    <path
      d="M407.24 122.79c-3.17 0-5.76 2.58-5.76 5.76s2.59 5.76 5.76 5.76 5.76-2.59 5.76-5.76-2.59-5.76-5.76-5.76Zm0 8.04c-1.26 0-2.28-1.03-2.28-2.28s1.02-2.28 2.28-2.28a2.279 2.279 0 1 1 0 4.56Z"
      style="fill:url(#V)" />
    <path
      d="M415.28 143.7c-2.44 0-4.42 1.98-4.42 4.42s1.98 4.42 4.42 4.42 4.41-1.98 4.41-4.42-1.98-4.42-4.41-4.42Zm0 5.36a.939.939 0 1 1 0-1.88.939.939 0 1 1 0 1.88Z"
      style="fill:url(#W)" />
    <path
      d="M375.66 73.66c-5.11 0-9.27 4.16-9.27 9.27s4.16 9.27 9.27 9.27 9.26-4.16 9.26-9.27-4.15-9.27-9.26-9.27Zm0 15.06c-3.2 0-5.79-2.6-5.79-5.79s2.59-5.79 5.79-5.79 5.78 2.6 5.78 5.79-2.59 5.79-5.78 5.79Z"
      style="fill:url(#X)" />
    <path
      d="M361.37 216.99c-1.27-3.14-3.88-5.42-7.17-6.24-33.51-8.37-49.46 12.83-51.1 15.2-.22.25-.35.54-.4.85-.02.1-.03.2-.03.3 0 .34.1.69.31.99.1.15.23.28.37.38.07.05.14.1.22.14.16.1.35.16.53.19.1.02.2.03.31.03.09 0 .18-.01.28-.02.02 0 .04-.01.06-.01 21.61-4.3 35.33-1.42 43.04 1.76 1.28.53 2.62.78 3.94.78 3.49 0 6.86-1.78 8.82-4.93 1.79-2.86 2.08-6.29.82-9.42Zm-3.77 7.58c-1.8 2.89-5.37 4.06-8.49 2.77-5.23-2.15-13.04-4.19-23.91-4.19-2.99 0-6.19.15-9.65.5h-.01c-2.18.22-4.45.52-6.83.9 1.03-1.08 2.33-2.32 3.94-3.57v-.01c7.19-5.69 20.35-11.92 40.7-6.84 2.19.55 3.94 2.06 4.78 4.16.85 2.09.65 4.38-.54 6.28Z"
      style="fill:url(#Y)" />
    <path
      d="M304.41 228.83c-.55 0-1.09-.26-1.43-.75-.55-.79-.35-1.87.44-2.42.81-.56 20.16-13.7 46.67-7.29.93.23 1.51 1.17 1.28 2.1a1.75 1.75 0 0 1-2.1 1.28c-25.01-6.05-43.68 6.64-43.86 6.77-.3.21-.65.31-.99.31Z"
      style="fill:url(#Z)" />
    <path
      d="M323.64 189.42c-.93-4-3.63-7.21-7.42-8.82-3.79-1.61-8-1.32-11.53.81-37.72 22.64-32.28 56.21-31.79 58.78.02.09.03.15.03.16v.03c.02.07.04.15.07.22a1.73 1.73 0 0 0 .42.63c.12.12.27.23.43.3.06.04.13.07.2.09.09.03.18.05.27.07a1.553 1.553 0 0 0 .61 0c.2-.03.39-.1.56-.2.17-.1.32-.23.45-.38.05-.05.09-.1.13-.16.02-.03.04-.05.05-.08 15.48-23.14 30.34-32.83 40.1-36.89 5.7-2.38 8.82-8.5 7.42-14.56Zm-8.76 11.34c-8.83 3.68-21.62 11.71-35.24 29.28a136.37 136.37 0 0 0-3.84 5.17c-.08-1.42-.11-3.14 0-5.09.62-11.4 5.76-30.78 30.68-45.73a9.208 9.208 0 0 1 8.38-.59 9.153 9.153 0 0 1 5.39 6.41c1.02 4.4-1.24 8.84-5.37 10.55Z"
      style="fill:url(#aa)" />
    <path
      d="M274.63 241.72c-.1 0-.21 0-.31-.03a1.731 1.731 0 0 1-1.4-2.02c.22-1.22 5.71-29.98 34.9-47.8a1.74 1.74 0 0 1 1.81 2.97c-27.87 17.01-33.24 45.17-33.29 45.45-.15.84-.88 1.43-1.71 1.43Z"
      style="fill:url(#ab)" />
    <path
      d="M268.47 247.21c-6.68-16.99-6.35-28.58-4.89-35.33.92-4.27-1.38-8.55-5.46-10.18-2.7-1.07-5.65-.8-8.11.75-2.46 1.56-3.99 4.12-4.18 7.02-1.99 29.97 19.49 39.63 20.35 40 .11.05.22.08.34.1a1.64 1.64 0 0 0 1-.09c.2-.08.4-.2.57-.37.09-.1.16-.19.22-.28.07-.1.12-.2.16-.31.17-.42.17-.89 0-1.31ZM249.3 209.7a5.478 5.478 0 0 1 2.57-4.31c.89-.56 1.9-.85 2.92-.85.69 0 1.38.13 2.04.4 2.5.99 3.91 3.6 3.35 6.21-1.19 5.52-1.7 14.05 1.28 25.73 0 .02 0 .03.02.05.56 2.23 1.25 4.59 2.1 7.05-1.27-.89-2.75-2.07-4.25-3.59-5.32-5.34-11.08-14.88-10.03-30.69Z"
      style="fill:url(#ac)" />
    <path
      d="M266.87 249.61c-.44 0-.89-.17-1.23-.51-.58-.58-14.3-14.58-12.96-37.38.06-.96.88-1.69 1.84-1.63.96.06 1.69.88 1.63 1.84-1.25 21.19 11.81 34.58 11.95 34.71a1.738 1.738 0 0 1-1.23 2.97Z"
      style="fill:url(#ad)" />
    <path
      d="M334.38 179.54c-4.42 0-8.02 3.6-8.02 8.03s3.6 8.02 8.02 8.02 8.03-3.6 8.03-8.02-3.6-8.03-8.03-8.03Zm0 12.57c-2.51 0-4.55-2.04-4.55-4.54s2.04-4.55 4.55-4.55 4.55 2.04 4.55 4.55-2.04 4.54-4.55 4.54Z"
      style="fill:url(#ae)" />
    <path
      d="M360.88 170.86c-5.75 0-10.42 4.67-10.42 10.42s4.67 10.42 10.42 10.42 10.42-4.67 10.42-10.42-4.67-10.42-10.42-10.42Zm0 17.36c-3.83 0-6.94-3.11-6.94-6.94s3.11-6.94 6.94-6.94 6.94 3.11 6.94 6.94-3.11 6.94-6.94 6.94Z"
      style="fill:url(#af)" />
    <path
      d="M374.48 374.71c-.63 0-1.24-.35-1.55-.95-.44-.86-.1-1.9.75-2.34 3.56-1.82 7.04-3.84 10.34-5.98.8-.52 1.88-.29 2.4.51.52.81.29 1.88-.51 2.41-3.4 2.21-6.99 4.28-10.65 6.16-.25.13-.53.19-.79.19Z"
      style="fill:url(#ag)" />
    <path
      d="M319.67 388.35c-24.55 0-48.42-8.03-71.14-23.96-.06-.04-.12-.09-.17-.14l-.02-.02c-.11-.1-.2-.22-.28-.34l1.14-.71.37-.44.87-1.28c.06.04.12.09.18.14 26.1 18.28 53.72 25.85 82.09 22.51.96-.12 1.82.57 1.93 1.52s-.57 1.82-1.52 1.93c-4.5.53-8.98.8-13.44.8Z"
      style="fill:url(#ah)" />
    <path
      d="M347.91 384.8c-.78 0-1.48-.52-1.68-1.31-.24-.93.32-1.88 1.25-2.12 4.13-1.06 8.31-2.36 12.44-3.88.9-.34 1.9.13 2.23 1.03s-.13 1.9-1.03 2.23c-4.23 1.56-8.53 2.9-12.77 3.99-.15.04-.29.06-.43.06Z"
      style="fill:url(#ai)" />
    <path
      d="M377.17 376.01c-.06-.78-.21-1.54-.45-2.26-.37-1.1-.94-2.13-1.7-3.03-.32-.4-.69-.78-1.1-1.13a9.321 9.321 0 0 0-6.84-2.25c-2.5.19-4.79 1.35-6.42 3.25a9.359 9.359 0 0 0-2.25 6.85c.01.19.04.38.06.57.17 1.18.55 2.3 1.11 3.29a9.41 9.41 0 0 0 8.21 4.83c.24 0 .47-.01.71-.03a9.338 9.338 0 0 0 6.43-3.25 9.313 9.313 0 0 0 2.24-6.84Zm-4.88 4.58a5.894 5.894 0 0 1-4.05 2.05c-2.76.21-5.27-1.56-6.09-4.12a5.887 5.887 0 0 1 1.14-5.66 5.915 5.915 0 0 1 4.05-2.05c.16-.01.31-.02.46-.02 1.42 0 2.77.5 3.86 1.44a5.935 5.935 0 0 1 2.05 4.05c.12 1.57-.39 3.11-1.42 4.31Z"
      style="fill:url(#aj)" />
    <path
      d="M349.91 384.35v-.02c-.09-1.19-.4-2.33-.91-3.36a9.574 9.574 0 0 0-2.34-3.04 9.335 9.335 0 0 0-6.84-2.25 9.35 9.35 0 0 0-6.43 3.26 9.18 9.18 0 0 0-2.23 5.33c-.03.26-.04.52-.04.78a9.695 9.695 0 0 0 .39 2.69 9.417 9.417 0 0 0 9.01 6.73c.24 0 .48-.01.72-.02 2.5-.19 4.79-1.35 6.42-3.26a9.321 9.321 0 0 0 2.25-6.84Zm-4.88 4.58a5.935 5.935 0 0 1-4.05 2.05c-.15.01-.3.02-.45.02-2.99 0-5.61-2.32-5.91-5.37v-.12c-.12-1.58.39-3.11 1.42-4.31s2.47-1.93 4.05-2.05c.15-.01.3-.01.46-.01 1.41 0 2.77.5 3.85 1.43.85.73 1.46 1.66 1.79 2.71v.05c.04.11.07.23.1.34v.02c.08.3.13.61.15.93.12 1.58-.38 3.11-1.41 4.31Z"
      style="fill:url(#ak)" />
    <path
      d="M400.64 361.78c-.19-2.5-1.34-4.78-3.25-6.42s-4.34-2.44-6.84-2.25a9.35 9.35 0 0 0-6.43 3.26 9.356 9.356 0 0 0-2.24 6.84c.09 1.09.35 2.13.77 3.1a9.35 9.35 0 0 0 1.98 2.86c.16.16.33.31.5.46a9.33 9.33 0 0 0 6.12 2.27c.24 0 .48-.01.72-.02 5.17-.4 9.06-4.93 8.67-10.1Zm-8.93 6.63c-1.58.12-3.11-.39-4.31-1.42a5.855 5.855 0 0 1-2.05-4.05c-.12-1.58.38-3.11 1.41-4.31a5.894 5.894 0 0 1 4.05-2.05c.16-.01.31-.01.46-.01 1.42 0 2.77.5 3.85 1.43a5.855 5.855 0 0 1 2.05 4.05c.25 3.26-2.2 6.11-5.46 6.36Z"
      style="fill:url(#al)" />
    <path
      d="M274.09 192.69c-.69 0-1.35-.42-1.62-1.1-.35-.89.08-1.9.98-2.26 6.48-2.57 11.57-7.5 14.33-13.89 2.76-6.39 2.87-13.48.31-19.95-4.16-10.51-16.1-15.68-26.62-11.52-3.99 1.58-7.12 4.62-8.83 8.56-1.7 3.94-1.77 8.3-.19 12.29a12.4 12.4 0 0 0 6.66 6.87c3.06 1.33 6.46 1.38 9.57.15 2.4-.95 4.28-2.78 5.31-5.14a9.611 9.611 0 0 0 .11-7.39 7.33 7.33 0 0 0-3.93-4.05 7.376 7.376 0 0 0-5.65-.09c-2.85 1.13-4.24 4.36-3.12 7.21.35.89-.08 1.9-.98 2.26-.89.35-1.9-.08-2.26-.98-1.83-4.63.44-9.89 5.07-11.72 2.69-1.07 5.64-1.02 8.31.13 2.66 1.15 4.71 3.27 5.78 5.96 1.29 3.26 1.24 6.83-.16 10.05-1.39 3.22-3.96 5.7-7.22 7-3.97 1.57-8.31 1.5-12.23-.19a15.834 15.834 0 0 1-8.51-8.78 19.422 19.422 0 0 1 .23-14.95c2.07-4.79 5.89-8.49 10.74-10.41 12.29-4.88 26.27 1.17 31.14 13.47 2.91 7.34 2.78 15.37-.35 22.62-3.13 7.25-8.9 12.84-16.24 15.74-.21.08-.43.12-.64.12Z"
      style="fill:url(#am)" />
    <path
      d="M218.93 282.46c-8.2 0-14.87 6.67-14.87 14.87s6.67 14.87 14.87 14.87 14.88-6.67 14.88-14.87-6.68-14.87-14.88-14.87Zm0 26.27c-6.28 0-11.39-5.12-11.39-11.4s5.11-11.4 11.39-11.4 11.4 5.12 11.4 11.4-5.11 11.4-11.4 11.4Z"
      style="fill:url(#an)" />
    <path
      d="M218.93 251.68c-6.68 0-12.12 5.44-12.12 12.13s5.44 12.13 12.12 12.13 12.13-5.44 12.13-12.13-5.44-12.13-12.13-12.13Zm0 20.78c-4.77 0-8.65-3.88-8.65-8.65s3.88-8.65 8.65-8.65 8.65 3.88 8.65 8.65-3.88 8.65-8.65 8.65Z"
      style="fill:url(#ao)" />
    <path
      d="M218.93 225.35c-5.17 0-9.38 4.21-9.38 9.38s4.21 9.38 9.38 9.38 9.38-4.2 9.38-9.38-4.21-9.38-9.38-9.38Zm0 15.28c-3.25 0-5.9-2.64-5.9-5.9s2.65-5.9 5.9-5.9 5.9 2.65 5.9 5.9-2.64 5.9-5.9 5.9Z"
      style="fill:url(#ap)" />
    <path
      d="M218.93 202.04c-3.65 0-6.63 2.98-6.63 6.64s2.98 6.63 6.63 6.63 6.64-2.98 6.64-6.63-2.98-6.64-6.64-6.64Zm0 9.79c-1.74 0-3.15-1.41-3.15-3.15s1.41-3.16 3.15-3.16 3.16 1.42 3.16 3.16-1.42 3.15-3.16 3.15Z"
      style="fill:url(#aq)" />
    <path
      d="M395.37 329.06c30.6-35.84 46.87-78.44 47.07-123.28.22-50.29-20.47-98.93-58.26-136.96C341.47 25.84 280.57.11 221.26 0h-.42c-53.36 0-107.9 20.48-149.67 56.23C26.82 94.18 1.56 144.81.07 198.79c-1.3 46.96 15.11 91.77 47.47 129.65l-19.33 29.98c-5.29 8.16-5.09 18.58.51 26.54l31.93 45.47c4.45 6.32 11.71 10.1 19.43 10.1h15.66c11.19 0 20.29 9.1 20.29 20.29v22.02c0 13.04 10.55 23.66 23.56 23.76.07.01.13.01.2.01h162.93c.06 0 .13 0 .2-.01 13.01-.1 23.56-10.72 23.56-23.76v-22.02c0-11.19 9.1-20.29 20.29-20.29h15.63c7.74 0 15.01-3.78 19.46-10.11l31.93-45.47c5.59-7.97 5.79-18.39.52-26.53l-18.94-29.36Zm15.57 53.9-31.93 45.46a20.3 20.3 0 0 1-16.61 8.63h-15.63c-13.1 0-23.76 10.66-23.76 23.77v22.02c0 10.84-8.55 19.72-19.26 20.26-.34.02-.68.03-1.03.03H139.79c-.35 0-.69-.01-1.03-.03-10.71-.54-19.26-9.42-19.26-20.26v-22.02c0-13.11-10.66-23.77-23.76-23.77H80.08a20.29 20.29 0 0 1-16.58-8.62l-31.93-45.48c-4.78-6.79-4.96-15.68-.44-22.65l20.04-31.07c.42-.64.36-1.49-.15-2.08-32.34-37.42-48.76-81.77-47.48-128.26C5.68 122 54.64 61.77 117.03 29.52c2.15-1.12 4.31-2.2 6.49-3.25 11.2-5.36 22.79-9.83 34.57-13.36 1.23-.37 2.47-.73 3.71-1.07 1.75-.5 3.5-.97 5.26-1.42h.01c1.2-.31 2.4-.61 3.6-.89 5.9-1.41 11.82-2.58 17.76-3.5 1.43-.23 2.84-.43 4.27-.63 9.4-1.27 18.81-1.92 28.14-1.92h.4c9.46.02 18.95.7 28.41 2.01h.01c1.43.19 2.85.41 4.28.63 5.95.94 11.87 2.13 17.75 3.56a218.88 218.88 0 0 1 9.03 2.38c1.23.35 2.45.71 3.67 1.08 11.88 3.61 23.52 8.18 34.74 13.65h.01c2.29 1.11 4.56 2.27 6.81 3.45 20.51 10.82 39.48 24.66 55.75 41.04 37.14 37.37 57.47 85.13 57.26 134.48-.2 44.42-16.48 86.61-47.08 122.01a1.73 1.73 0 0 0-.15 2.08l19.64 30.45v.01c4.5 6.95 4.32 15.84-.45 22.65Z"
      style="fill:url(#ar)" />
    <path
      d="m264.23 424.47-32.35-56.03c-4.74-8.21-16.59-8.21-21.33 0l-32.35 56.03c-7.49 12.98 1.87 29.2 16.86 29.2h52.31c14.99 0 24.35-16.22 16.86-29.2Z"
      style="fill:url(#as)" />
    <path
      d="M139.79 506.61c-.26 0-.53-.06-.78-.19a1.725 1.725 0 0 1-.77-2.33c8.42-16.77 24.34-21.69 34.45-23.07-18.14-7.47-31.79-21.5-36.53-38.09-1.26-4.39-1.98-9.13-2.14-14.09l-.02-.46c-.17-5.09-.34-10.35-2.81-14.66-2.64-4.62-6.96-7.93-11.85-9.08-4.11-.96-8.35-.27-11.93 1.96a15.674 15.674 0 0 0-7.05 9.82c-.75 3.2-.21 6.49 1.53 9.28 1.73 2.79 4.45 4.74 7.64 5.49 5.09 1.19 10.21-1.98 11.4-7.07a7.2 7.2 0 0 0-.9-5.47 7.204 7.204 0 0 0-4.5-3.23 5.399 5.399 0 0 0-4.11.68c-1.24.77-2.1 1.97-2.43 3.39-.22.94-1.15 1.52-2.09 1.3a1.735 1.735 0 0 1-1.3-2.09 8.882 8.882 0 0 1 3.98-5.55 8.865 8.865 0 0 1 6.74-1.11c2.79.65 5.15 2.35 6.67 4.78 1.51 2.43 1.98 5.31 1.33 8.1-1.63 6.96-8.61 11.3-15.58 9.67-4.1-.96-7.58-3.46-9.8-7.04a15.675 15.675 0 0 1-1.96-11.91 19.18 19.18 0 0 1 8.6-11.99c4.38-2.72 9.55-3.56 14.56-2.39 5.83 1.36 10.96 5.28 14.08 10.74 2.89 5.07 3.08 10.76 3.27 16.27v.46c.17 4.67.85 9.13 2.03 13.25 5.14 17.96 21.5 32.76 42.7 38.63.86.24 1.4 1.09 1.25 1.98-.15.88-.94 1.5-1.85 1.43-.27-.02-28.44-1.91-40.25 21.63-.31.61-.92.96-1.56.96Z"
      style="fill:url(#at)" />
    <path
      d="M154.85 448.96c-2.47 0-4.95-.69-7.08-2.12-2.99-1.99-4.73-5.09-4.77-8.49-.04-3.32 1.56-6.44 4.27-8.35 2.12-1.49 4.9-1.87 7.45-1.05 3.16 1.05 5.24 3.41 5.58 6.32.32 2.71-.97 5.39-3.29 6.82-.81.51-1.89.26-2.39-.56-.51-.82-.26-1.89.56-2.39a3.584 3.584 0 0 0 1.66-3.46c-.18-1.56-1.36-2.81-3.22-3.43-1.5-.49-3.14-.27-4.37.59a6.578 6.578 0 0 0-2.79 5.46c.03 2.27 1.17 4.27 3.22 5.64 3.7 2.47 8.79 1.94 11.85-1.24 3.56-3.7 4.15-9.34 1.43-13.71a14.424 14.424 0 0 0-9-6.47c-3.77-.88-7.65-.24-10.94 1.8a18.51 18.51 0 0 0-5.82 5.73c-.52.81-1.6 1.04-2.4.52-.81-.52-1.04-1.6-.52-2.4 1.78-2.76 4.1-5.05 6.9-6.8 4.08-2.53 8.9-3.33 13.57-2.23 4.67 1.09 8.64 3.94 11.17 8.02 3.55 5.72 2.78 13.11-1.88 17.96-2.44 2.53-5.81 3.85-9.21 3.85Z"
      style="fill:url(#au)" />
    <path
      d="M148.35 393.9a8.72 8.72 0 0 0-2.3-.31c-3.92 0-7.53 2.62-8.59 6.58-1.28 4.73 1.53 9.62 6.27 10.9.77.2 1.55.31 2.32.31 1.54 0 3.05-.41 4.42-1.19a8.852 8.852 0 0 0 4.15-5.39c1.28-4.73-1.54-9.62-6.27-10.9Zm2.91 9.99a5.337 5.337 0 0 1-2.52 3.28c-1.26.72-2.71.91-4.11.54a5.41 5.41 0 0 1-3.81-6.63c.77-2.88 3.74-4.6 6.63-3.82a5.41 5.41 0 0 1 3.81 6.63Z"
      style="fill:url(#av)" />
    <path
      d="M302.72 506.61c-.64 0-1.25-.35-1.56-.96-11.82-23.55-39.97-21.65-40.25-21.63-.91.07-1.69-.55-1.85-1.43s.38-1.74 1.25-1.98c21.2-5.87 37.56-20.67 42.7-38.63 1.18-4.12 1.85-8.58 2.01-13.25v-.46c.2-5.51.39-11.21 3.28-16.27 3.12-5.46 8.25-9.37 14.08-10.74 10.36-2.42 20.74 4.03 23.17 14.38.96 4.1.27 8.33-1.96 11.91a15.65 15.65 0 0 1-9.81 7.04c-6.98 1.63-13.95-2.71-15.58-9.67-.65-2.79-.18-5.66 1.33-8.1 1.51-2.43 3.88-4.13 6.67-4.78 2.32-.54 4.71-.15 6.74 1.11a8.845 8.845 0 0 1 3.98 5.55c.22.94-.36 1.87-1.3 2.09-.94.22-1.87-.36-2.09-1.3a5.395 5.395 0 0 0-2.43-3.39 5.392 5.392 0 0 0-4.11-.68 7.204 7.204 0 0 0-4.5 3.23 7.2 7.2 0 0 0-.9 5.47c1.19 5.09 6.31 8.27 11.4 7.07 3.2-.75 5.91-2.7 7.64-5.49 1.73-2.79 2.27-6.09 1.53-9.28-1.99-8.48-10.5-13.77-18.99-11.78-4.89 1.14-9.21 4.45-11.85 9.08-2.46 4.32-2.64 9.58-2.81 14.66l-.02.46c-.17 4.96-.89 9.69-2.14 14.09-4.75 16.59-18.39 30.62-36.53 38.09 10.11 1.39 26.03 6.3 34.45 23.07.43.86.08 1.9-.77 2.33-.25.13-.52.19-.78.19Z"
      style="fill:url(#aw)" />
    <path
      d="M287.66 448.96c-3.39 0-6.77-1.31-9.21-3.84-4.66-4.85-5.43-12.24-1.88-17.96 2.53-4.08 6.5-6.92 11.17-8.02 4.67-1.09 9.48-.3 13.57 2.23 2.81 1.76 5.13 4.04 6.91 6.8.52.81.29 1.88-.52 2.4-.8.52-1.88.29-2.4-.52-1.5-2.33-3.46-4.26-5.82-5.74a14.377 14.377 0 0 0-10.93-1.8 14.36 14.36 0 0 0-9 6.47 11.257 11.257 0 0 0 1.43 13.72c3.06 3.17 8.15 3.71 11.85 1.24 2.05-1.37 3.2-3.37 3.23-5.64a6.565 6.565 0 0 0-2.79-5.46c-1.23-.86-2.87-1.08-4.38-.58-1.85.61-3.02 1.86-3.21 3.42-.16 1.37.49 2.73 1.66 3.46.82.51 1.07 1.58.56 2.39-.51.82-1.58 1.07-2.39.56a7.1 7.1 0 0 1-3.29-6.82c.34-2.91 2.43-5.27 5.57-6.32 2.56-.83 5.34-.44 7.46 1.04 2.72 1.91 4.31 5.03 4.27 8.36-.04 3.4-1.78 6.49-4.77 8.49-2.14 1.43-4.61 2.12-7.08 2.12Z"
      style="fill:url(#ax)" />
    <path
      d="M305.05 400.17a8.825 8.825 0 0 0-4.15-5.39 8.821 8.821 0 0 0-6.74-.88c-4.73 1.28-7.55 6.17-6.27 10.9.62 2.29 2.09 4.2 4.15 5.39 1.37.78 2.88 1.19 4.42 1.19.77 0 1.56-.11 2.32-.31 2.3-.62 4.21-2.1 5.39-4.15a8.83 8.83 0 0 0 .88-6.75Zm-3.89 5.01a5.415 5.415 0 0 1-3.28 2.53c-1.4.37-2.85.18-4.11-.54a5.337 5.337 0 0 1-2.52-3.28 5.41 5.41 0 0 1 7.92-6.1c1.25.73 2.15 1.89 2.52 3.29.38 1.39.19 2.85-.53 4.1Z"
      style="fill:url(#ay)" />
    <path
      d="M221.24 115.8c-.96 0-1.74-.78-1.74-1.74V36.83a1.741 1.741 0 0 1 3.48 0v77.23c0 .96-.78 1.74-1.74 1.74Z"
      style="fill:url(#az)" />
    <path
      d="M415.28 231.71c-5.88 0-10.67 4.78-10.67 10.66s4.79 10.67 10.67 10.67 10.66-4.79 10.66-10.67-4.79-10.66-10.66-10.66Zm0 17.85c-3.97 0-7.19-3.22-7.19-7.19s3.22-7.18 7.19-7.18 7.18 3.22 7.18 7.18-3.22 7.19-7.18 7.19Z"
      style="fill:url(#aA)" />
    <path
      d="M25.74 231.71c-5.88 0-10.66 4.78-10.66 10.66s4.78 10.67 10.66 10.67 10.66-4.79 10.66-10.67-4.78-10.66-10.66-10.66Zm0 17.85c-3.96 0-7.19-3.22-7.19-7.19s3.23-7.18 7.19-7.18 7.18 3.22 7.18 7.18-3.22 7.19-7.18 7.19Z"
      style="fill:url(#aB)" />
  </g>
</svg>